<?xml version="1.0" standalone="no"?><!DOCTYPE svg PUBLIC "-//W3C//DTD SVG 1.1//EN" "http://www.w3.org/Graphics/SVG/1.1/DTD/svg11.dtd"><svg t="1548310965158" class="icon" style="" viewBox="0 0 1024 1024" version="1.1" xmlns="http://www.w3.org/2000/svg" p-id="3461" xmlns:xlink="http://www.w3.org/1999/xlink" width="128" height="128"><defs><style type="text/css"></style></defs><path d="M317.44 608.256l84.992 84.992c-83.968 70.656-206.848 181.248-232.448 201.728-64.512 50.176-121.856 66.56-121.856 66.56s16.384-57.344 66.56-121.856C136.192 815.104 245.76 692.224 317.44 608.256z m661.504-348.16L750.592 32.768c-24.576-24.576-63.488-24.576-87.04 0-24.576 24.576-24.576 63.488 0 87.04l18.432 18.432-333.824 235.52-73.728-73.728c-24.576-24.576-63.488-24.576-87.04 0-24.576 24.576-24.576 63.488 0 87.04L624.64 824.32c24.576 24.576 63.488 24.576 87.04 0 24.576-24.576 24.576-63.488 0-87.04l-73.728-73.728 235.52-333.824L890.88 348.16c24.576 24.576 63.488 24.576 87.04 0 24.576-24.576 24.576-63.488 1.024-88.064z m0 0" p-id="3462"></path></svg>