<?xml version="1.0" standalone="no"?><!DOCTYPE svg PUBLIC "-//W3C//DTD SVG 1.1//EN" "http://www.w3.org/Graphics/SVG/1.1/DTD/svg11.dtd"><svg t="1548475499581" class="icon" style="" viewBox="0 0 1024 1024" version="1.1" xmlns="http://www.w3.org/2000/svg" p-id="659" xmlns:xlink="http://www.w3.org/1999/xlink" width="128" height="128"><defs><style type="text/css"></style></defs><path d="M515.746 835.434c-34.966 0-62.439 27.473-62.439 62.44 0 33.716 27.473 61.19 62.44 61.19s62.438-27.474 62.438-61.19c0-34.967-28.722-62.44-62.439-62.44zM128.624 233.522c-39.96 23.727-78.673 51.2-114.887 82.42-16.235 13.736-17.483 38.712-3.747 54.946 13.737 16.234 38.712 17.483 54.947 3.746 37.463-32.468 77.424-59.941 119.883-83.668l-56.196-57.444z m881.64 82.42C871.648 196.058 695.57 129.872 512 129.872c-78.673 0-157.346 12.488-231.024 36.215l62.439 63.688c54.946-13.737 112.39-21.23 169.834-21.23 164.839 0 323.434 58.693 447.063 166.088 7.493 6.244 16.234 9.99 24.976 9.99 11.239 0 21.23-4.995 29.97-13.736 12.488-16.234 11.24-41.21-4.995-54.947zM295.96 403.355c-51.2 22.478-99.902 52.449-142.361 91.161-16.234 13.737-17.483 38.712-2.498 54.946 14.986 16.235 38.713 17.483 54.947 2.498 43.707-38.712 94.907-68.683 148.605-88.663l-58.693-59.942z m209.795-42.458c-11.239 0-22.478 0-33.717 1.248l77.424 78.674c94.908 8.741 184.82 48.702 257.25 112.39 7.492 6.244 16.233 9.99 26.224 9.99 11.239 0 21.229-4.995 28.722-12.488 14.985-16.234 12.487-41.21-2.498-54.946-97.405-87.415-223.532-134.868-353.405-134.868z m63.688 322.185l-84.917-86.166c-66.186 4.995-129.873 31.22-179.825 77.424-16.234 14.986-17.482 38.713-2.497 54.947s38.712 17.483 54.946 2.497c41.21-37.463 93.659-57.444 148.605-57.444 22.478 0 43.707 2.498 63.688 8.742zM112.39 72.429c-9.99-9.99-24.975-9.99-33.717-1.249-8.741 8.742-9.99 23.727 0 32.469L758.01 795.473c4.995 4.995 11.239 7.493 16.234 7.493 6.244 0 11.239-2.498 16.234-6.244 8.742-8.742 9.99-23.727 0-32.468L112.39 72.429z" fill="" p-id="660"></path></svg>